<svg xmlns="http://www.w3.org/2000/svg" xmlns:xlink="http://www.w3.org/1999/xlink" width="512" zoomAndPan="magnify" viewBox="0 0 384 383.999986" height="512" preserveAspectRatio="xMidYMid meet" version="1.0"><defs><g/><clipPath id="34db0b4739"><path d="M 8.953125 144.210938 L 124.15625 144.210938 L 124.15625 259.410156 L 8.953125 259.410156 Z M 8.953125 144.210938 " clip-rule="nonzero"/></clipPath><clipPath id="dad412a247"><path d="M 26.953125 144.210938 L 106.15625 144.210938 C 116.097656 144.210938 124.15625 152.269531 124.15625 162.210938 L 124.15625 241.410156 C 124.15625 251.351562 116.097656 259.410156 106.15625 259.410156 L 26.953125 259.410156 C 17.011719 259.410156 8.953125 251.351562 8.953125 241.410156 L 8.953125 162.210938 C 8.953125 152.269531 17.011719 144.210938 26.953125 144.210938 Z M 26.953125 144.210938 " clip-rule="nonzero"/></clipPath><clipPath id="371ae8049b"><path d="M 0.953125 0.210938 L 116.15625 0.210938 L 116.15625 115.410156 L 0.953125 115.410156 Z M 0.953125 0.210938 " clip-rule="nonzero"/></clipPath><clipPath id="5afc860b4b"><path d="M 18.953125 0.210938 L 98.15625 0.210938 C 108.097656 0.210938 116.15625 8.269531 116.15625 18.210938 L 116.15625 97.410156 C 116.15625 107.351562 108.097656 115.410156 98.15625 115.410156 L 18.953125 115.410156 C 9.011719 115.410156 0.953125 107.351562 0.953125 97.410156 L 0.953125 18.210938 C 0.953125 8.269531 9.011719 0.210938 18.953125 0.210938 Z M 18.953125 0.210938 " clip-rule="nonzero"/></clipPath><clipPath id="bb6aab1434"><rect x="0" width="117" y="0" height="116"/></clipPath><clipPath id="4025669f31"><rect x="0" width="69" y="0" height="124"/></clipPath></defs><g clip-path="url(#34db0b4739)"><g clip-path="url(#dad412a247)"><g transform="matrix(1, 0, 0, 1, 8, 144)"><g clip-path="url(#bb6aab1434)"><g clip-path="url(#371ae8049b)"><g clip-path="url(#5afc860b4b)"><path fill="#ff6a00" d="M 0.953125 0.210938 L 116.15625 0.210938 L 116.15625 115.410156 L 0.953125 115.410156 Z M 0.953125 0.210938 " fill-opacity="1" fill-rule="nonzero"/></g></g></g></g></g></g><g transform="matrix(1, 0, 0, 1, 32, 128)"><g clip-path="url(#4025669f31)"><g fill="#ffffff" fill-opacity="1"><g transform="translate(4.289947, 96.980699)"><g><path d="M 56.03125 -16.78125 C 56.03125 -11.226562 53.753906 -6.863281 49.203125 -3.6875 C 44.660156 -0.519531 38.367188 1.0625 30.328125 1.0625 C 22.429688 1.0625 16.382812 -0.179688 12.1875 -2.671875 C 7.988281 -5.171875 5.203125 -9.0625 3.828125 -14.34375 L 16.9375 -16.3125 C 17.6875 -13.582031 18.972656 -11.648438 20.796875 -10.515625 C 22.617188 -9.378906 25.796875 -8.8125 30.328125 -8.8125 C 34.503906 -8.8125 37.546875 -9.34375 39.453125 -10.40625 C 41.367188 -11.46875 42.328125 -13.132812 42.328125 -15.40625 C 42.328125 -17.25 41.554688 -18.707031 40.015625 -19.78125 C 38.484375 -20.863281 35.875 -21.773438 32.1875 -22.515625 C 23.757812 -24.179688 18.078125 -25.726562 15.140625 -27.15625 C 12.203125 -28.59375 9.960938 -30.453125 8.421875 -32.734375 C 6.878906 -35.023438 6.109375 -37.835938 6.109375 -41.171875 C 6.109375 -46.648438 8.222656 -50.921875 12.453125 -53.984375 C 16.679688 -57.054688 22.675781 -58.59375 30.4375 -58.59375 C 37.269531 -58.59375 42.765625 -57.265625 46.921875 -54.609375 C 51.085938 -51.953125 53.679688 -48.109375 54.703125 -43.078125 L 41.484375 -41.703125 C 41.054688 -44.035156 40.007812 -45.773438 38.34375 -46.921875 C 36.6875 -48.078125 34.050781 -48.65625 30.4375 -48.65625 C 26.894531 -48.65625 24.238281 -48.203125 22.46875 -47.296875 C 20.695312 -46.390625 19.8125 -44.878906 19.8125 -42.765625 C 19.8125 -41.097656 20.492188 -39.773438 21.859375 -38.796875 C 23.222656 -37.828125 25.515625 -37.023438 28.734375 -36.390625 C 33.234375 -35.460938 37.222656 -34.507812 40.703125 -33.53125 C 44.191406 -32.5625 46.988281 -31.40625 49.09375 -30.0625 C 51.207031 -28.71875 52.890625 -26.988281 54.140625 -24.875 C 55.398438 -22.769531 56.03125 -20.070312 56.03125 -16.78125 Z M 56.03125 -16.78125 "/></g></g></g></g></g><g fill="#000000" fill-opacity="1"><g transform="translate(129.063088, 225.811007)"><g><path d="M 43.953125 -13.875 C 43.953125 -9.15625 42.203125 -5.546875 38.703125 -3.046875 C 35.210938 -0.554688 30.082031 0.6875 23.3125 0.6875 C 17.132812 0.6875 12.289062 -0.40625 8.78125 -2.59375 C 5.269531 -4.78125 3.015625 -8.097656 2.015625 -12.546875 L 11.765625 -14.15625 C 12.421875 -11.601562 13.703125 -9.75 15.609375 -8.59375 C 17.523438 -7.445312 20.179688 -6.875 23.578125 -6.875 C 30.617188 -6.875 34.140625 -9.015625 34.140625 -13.296875 C 34.140625 -14.660156 33.734375 -15.785156 32.921875 -16.671875 C 32.117188 -17.566406 30.984375 -18.3125 29.515625 -18.90625 C 28.046875 -19.5 25.226562 -20.21875 21.0625 -21.0625 C 17.457031 -21.894531 14.945312 -22.566406 13.53125 -23.078125 C 12.125 -23.597656 10.847656 -24.203125 9.703125 -24.890625 C 8.566406 -25.585938 7.597656 -26.425781 6.796875 -27.40625 C 6.003906 -28.382812 5.382812 -29.535156 4.9375 -30.859375 C 4.488281 -32.179688 4.265625 -33.695312 4.265625 -35.40625 C 4.265625 -39.757812 5.898438 -43.09375 9.171875 -45.40625 C 12.441406 -47.71875 17.203125 -48.875 23.453125 -48.875 C 29.421875 -48.875 33.898438 -47.9375 36.890625 -46.0625 C 39.890625 -44.195312 41.820312 -41.113281 42.6875 -36.8125 L 32.921875 -35.484375 C 32.410156 -37.554688 31.382812 -39.113281 29.84375 -40.15625 C 28.3125 -41.207031 26.113281 -41.734375 23.25 -41.734375 C 17.132812 -41.734375 14.078125 -39.816406 14.078125 -35.984375 C 14.078125 -34.734375 14.398438 -33.707031 15.046875 -32.90625 C 15.703125 -32.113281 16.664062 -31.4375 17.9375 -30.875 C 19.21875 -30.320312 21.804688 -29.625 25.703125 -28.78125 C 30.328125 -27.800781 33.632812 -26.894531 35.625 -26.0625 C 37.625 -25.226562 39.203125 -24.257812 40.359375 -23.15625 C 41.523438 -22.050781 42.414062 -20.726562 43.03125 -19.1875 C 43.644531 -17.65625 43.953125 -15.882812 43.953125 -13.875 Z M 43.953125 -13.875 "/></g></g></g><g fill="#000000" fill-opacity="1"><g transform="translate(175.749932, 225.811007)"><g><path d="M 4.890625 -43.640625 L 4.890625 -50.71875 L 14.5 -50.71875 L 14.5 -43.640625 Z M 4.890625 0 L 4.890625 -36.984375 L 14.5 -36.984375 L 14.5 0 Z M 4.890625 0 "/></g></g></g><g fill="#000000" fill-opacity="1"><g transform="translate(195.197093, 225.811007)"><g><path d="M 14.359375 0.609375 C 11.535156 0.609375 9.359375 -0.15625 7.828125 -1.6875 C 6.296875 -3.226562 5.53125 -5.5625 5.53125 -8.6875 L 5.53125 -30.484375 L 0.859375 -30.484375 L 0.859375 -36.984375 L 6.015625 -36.984375 L 9.03125 -45.671875 L 15.046875 -45.671875 L 15.046875 -36.984375 L 22.046875 -36.984375 L 22.046875 -30.484375 L 15.046875 -30.484375 L 15.046875 -11.28125 C 15.046875 -9.476562 15.382812 -8.148438 16.0625 -7.296875 C 16.75 -6.441406 17.8125 -6.015625 19.25 -6.015625 C 20 -6.015625 21.066406 -6.175781 22.453125 -6.5 L 22.453125 -0.546875 C 20.085938 0.222656 17.390625 0.609375 14.359375 0.609375 Z M 14.359375 0.609375 "/></g></g></g><g fill="#000000" fill-opacity="1"><g transform="translate(218.506337, 225.811007)"><g><path d="M 20.03125 0.6875 C 14.46875 0.6875 10.191406 -0.957031 7.203125 -4.25 C 4.222656 -7.539062 2.734375 -12.34375 2.734375 -18.65625 C 2.734375 -24.769531 4.25 -29.46875 7.28125 -32.75 C 10.3125 -36.03125 14.609375 -37.671875 20.171875 -37.671875 C 25.472656 -37.671875 29.523438 -35.910156 32.328125 -32.390625 C 35.128906 -28.867188 36.53125 -23.710938 36.53125 -16.921875 L 36.53125 -16.640625 L 12.8125 -16.640625 C 12.8125 -13.046875 13.476562 -10.332031 14.8125 -8.5 C 16.144531 -6.664062 18.046875 -5.75 20.515625 -5.75 C 23.898438 -5.75 26.039062 -7.21875 26.9375 -10.15625 L 35.984375 -9.359375 C 33.367188 -2.660156 28.050781 0.6875 20.03125 0.6875 Z M 20.03125 -31.609375 C 17.769531 -31.609375 16.03125 -30.820312 14.8125 -29.25 C 13.59375 -27.6875 12.953125 -25.488281 12.890625 -22.65625 L 27.234375 -22.65625 C 27.054688 -25.644531 26.335938 -27.882812 25.078125 -29.375 C 23.828125 -30.863281 22.144531 -31.609375 20.03125 -31.609375 Z M 20.03125 -31.609375 "/></g></g></g><g fill="#ff6a00" fill-opacity="1"><g transform="translate(258.256304, 225.811007)"><g><path d="M 35.859375 -40.53125 C 33.691406 -37.113281 31.644531 -33.796875 29.71875 -30.578125 C 27.789062 -27.367188 26.109375 -24.140625 24.671875 -20.890625 C 23.242188 -17.648438 22.113281 -14.316406 21.28125 -10.890625 C 20.445312 -7.460938 20.03125 -3.832031 20.03125 0 L 10.015625 0 C 10.015625 -4.007812 10.535156 -7.890625 11.578125 -11.640625 C 12.628906 -15.390625 14.144531 -19.207031 16.125 -23.09375 C 18.113281 -26.976562 21.71875 -32.703125 26.9375 -40.265625 L 3.015625 -40.265625 L 3.015625 -48.15625 L 35.859375 -48.15625 Z M 35.859375 -40.53125 "/></g></g></g><g fill="#ff6a00" fill-opacity="1"><g transform="translate(297.184799, 225.811007)"><g><path d="M 2.421875 0 L 2.421875 -6.671875 C 3.679688 -9.421875 5.46875 -12.101562 7.78125 -14.71875 C 10.09375 -17.34375 13.003906 -20.082031 16.515625 -22.9375 C 19.878906 -25.664062 22.238281 -27.921875 23.59375 -29.703125 C 24.957031 -31.484375 25.640625 -33.226562 25.640625 -34.9375 C 25.640625 -39.125 23.53125 -41.21875 19.3125 -41.21875 C 17.257812 -41.21875 15.691406 -40.664062 14.609375 -39.5625 C 13.523438 -38.457031 12.828125 -36.800781 12.515625 -34.59375 L 2.84375 -35.140625 C 3.382812 -39.609375 5.050781 -43.015625 7.84375 -45.359375 C 10.632812 -47.703125 14.4375 -48.875 19.25 -48.875 C 24.4375 -48.875 28.421875 -47.6875 31.203125 -45.3125 C 33.984375 -42.945312 35.375 -39.625 35.375 -35.34375 C 35.375 -33.082031 34.925781 -31.039062 34.03125 -29.21875 C 33.144531 -27.394531 32.007812 -25.710938 30.625 -24.171875 C 29.238281 -22.640625 27.695312 -21.203125 26 -19.859375 C 24.300781 -18.515625 22.648438 -17.203125 21.046875 -15.921875 C 19.453125 -14.648438 18 -13.363281 16.6875 -12.0625 C 15.382812 -10.769531 14.414062 -9.378906 13.78125 -7.890625 L 36.125 -7.890625 L 36.125 0 Z M 2.421875 0 "/></g></g></g><g fill="#ff6a00" fill-opacity="1"><g transform="translate(336.113293, 225.811007)"><g><path d="M 32.125 -9.8125 L 32.125 0 L 22.96875 0 L 22.96875 -9.8125 L 1.0625 -9.8125 L 1.0625 -17.015625 L 21.390625 -48.15625 L 32.125 -48.15625 L 32.125 -16.953125 L 38.5625 -16.953125 L 38.5625 -9.8125 Z M 22.96875 -32.703125 C 22.96875 -33.941406 23.003906 -35.273438 23.078125 -36.703125 C 23.160156 -38.140625 23.226562 -39.066406 23.28125 -39.484375 C 22.6875 -38.203125 21.613281 -36.351562 20.0625 -33.9375 L 8.890625 -16.953125 L 22.96875 -16.953125 Z M 22.96875 -32.703125 "/></g></g></g></svg>